# xmcd CD database file
# Copyright (C) 1995-1998 Ti Kan
#
# Track frame offsets:
#	150
#	17375
#	38165
#	53747
#	79997
#	94952
#	113760
#	130572
#	147372
#	168832
#	191997
#	206097
#	225200
#	246620
#
# Disc length: 3503 seconds
#
# Revision: 1
# Processed by: cddbd v1.4b41PL1 Copyright (c) Steve Scherf et al.
# Submitted via: CDex 1.30
#
DISCID=b90dad0e
DTITLE=Duke Tumatoe and The Power Trio - Duke Tumatoe and The Power Trio
DYEAR=2001
DGENRE=Blues
TTITLE0=Barefootin'
TTITLE1=More Love, More Money
TTITLE2=Don't Have It In Me
TTITLE3=You Can't Fool Me
TTITLE4=Get Loose
TTITLE5=Girls Must Have Funds!
TTITLE6=Kansas City
TTITLE7=Smell So Good
TTITLE8=If I Hadn't Been High
TTITLE9=Choice Tattoo
TTITLE10=Love To Play The Blues
TTITLE11=Who's That Woman?
TTITLE12=Tie You Up
TTITLE13=Wild Animals
EXTD=\nYEAR: 2001  ID3G:   0
EXTT0=
EXTT1=
EXTT2=
EXTT3=
EXTT4=
EXTT5=
EXTT6=
EXTT7=
EXTT8=
EXTT9=
EXTT10=
EXTT11=
EXTT12=
EXTT13=
PLAYORDER=
